HIERARCHY
ROOT root
{
	OFFSET 0.000000 0.000000 0.000000
	CHANNELS 6 Xposition Yposition Zposition Zrotation Yrotation Xrotation
	JOINT lhip
	{
		OFFSET 0.058581 -0.082280 -0.017664
		CHANNELS 3 Zrotation Yrotation Xrotation
		JOINT lknee
		{
			OFFSET 0.043451 -0.386469 0.008037
			CHANNELS 3 Zrotation Yrotation Xrotation
			JOINT lankle
			{
				OFFSET -0.014790 -0.426874 -0.037428
				CHANNELS 3 Zrotation Yrotation Xrotation
				JOINT ltoe
				{
					OFFSET 0.041054 -0.060286 0.122042
					CHANNELS 3 Zrotation Yrotation Xrotation
					End Site
					{
						OFFSET 0.000000 0.000000 0.000000
					}
				}
			}
		}
	}
	JOINT rhip
	{
		OFFSET -0.060310 -0.090513 -0.013543
		CHANNELS 3 Zrotation Yrotation Xrotation
		JOINT rknee
		{
			OFFSET -0.043257 -0.383688 -0.004843
			CHANNELS 3 Zrotation Yrotation Xrotation
			JOINT rankle
			{
				OFFSET 0.019056 -0.420046 -0.034562
				CHANNELS 3 Zrotation Yrotation Xrotation
				JOINT rtoe
				{
					OFFSET -0.034840 -0.062106 0.130323
					CHANNELS 3 Zrotation Yrotation Xrotation
					End Site
					{
						OFFSET 0.000000 0.000000 0.000000
					}
				}
			}
		}
	}
	JOINT lowerback
	{
		OFFSET 0.004439 0.124404 -0.038385
		CHANNELS 3 Zrotation Yrotation Xrotation
		JOINT upperback
		{
			OFFSET 0.004488 0.137956 0.026820
			CHANNELS 3 Zrotation Yrotation Xrotation
			JOINT chest
			{
				OFFSET -0.002265 0.056032 0.002855
				CHANNELS 3 Zrotation Yrotation Xrotation
				JOINT lowerneck
				{
					OFFSET -0.013390 0.211636 -0.033468
					CHANNELS 3 Zrotation Yrotation Xrotation
					JOINT upperneck
					{
						OFFSET 0.010113 0.088937 0.050410
						CHANNELS 3 Zrotation Yrotation Xrotation
						End Site
						{
							OFFSET 0.000000 0.000000 0.000000
						}
					}
				}
				JOINT lclavicle
				{
					OFFSET 0.071702 0.114000 -0.018898
					CHANNELS 3 Zrotation Yrotation Xrotation
					JOINT lshoulder
					{
						OFFSET 0.122921 0.045205 -0.019046
						CHANNELS 3 Zrotation Yrotation Xrotation
						JOINT lelbow
						{
							OFFSET 0.255332 -0.015649 -0.022946
							CHANNELS 3 Zrotation Yrotation Xrotation
							JOINT lwrist
							{
								OFFSET 0.265709 0.012698 -0.007375
								CHANNELS 3 Zrotation Yrotation Xrotation
								End Site
								{
									OFFSET 0.000000 0.000000 0.000000
								}
							}
						}
					}
				}
				JOINT rclavicle
				{
					OFFSET -0.082954 0.112472 -0.023707
					CHANNELS 3 Zrotation Yrotation Xrotation
					JOINT rshoulder
					{
						OFFSET -0.113228 0.046853 -0.008472
						CHANNELS 3 Zrotation Yrotation Xrotation
						JOINT relbow
						{
							OFFSET -0.260127 -0.014369 -0.031269
							CHANNELS 3 Zrotation Yrotation Xrotation
							JOINT rwrist
							{
								OFFSET -0.269108 0.006794 -0.006027
								CHANNELS 3 Zrotation Yrotation Xrotation
								End Site
								{
									OFFSET 0.000000 0.000000 0.000000
								}
							}
						}
					}
				}
			}
		}
	}
}
MOTION
Frames: 11
Frame Time: 0.033333
0.628037 0.723333 0.952283 -94.666413 -0.801391 82.902159 -0.013506 -11.139216 -23.243282 -11.999491 1.683307 32.551780 15.229770 18.768510 -6.383248 0.000000 -0.000000 0.000000 -17.724108 5.044840 -0.723307 9.979343 9.310668 108.875475 7.617052 -19.849579 31.360584 0.000000 -0.000000 0.000000 -5.285862 9.793863 10.567416 7.448977 -0.497778 9.448293 1.373583 2.320009 3.166960 2.701046 -11.545290 16.178109 4.617659 -4.562603 0.791811 -12.880166 2.004467 9.751104 -34.174704 18.044701 2.391375 -1.025465 -45.541580 20.279566 10.638184 1.888963 4.691982 15.972794 6.158424 0.957260 39.193798 0.498292 6.547761 -19.953549 37.146281 -11.202502 -4.296264 -5.655894 13.155176 
0.613361 0.715416 0.957631 -92.252140 -0.095212 78.828042 -2.817136 -8.974281 -16.610928 -11.572471 -2.742462 31.510181 14.905299 18.379635 -7.063337 0.000000 -0.000000 0.000000 -15.708283 7.063833 -15.682705 8.142618 6.009920 106.037816 4.179781 -16.481227 26.765350 0.000000 -0.000000 0.000000 -3.462704 4.295763 18.422898 6.328083 -0.367369 7.126099 1.118034 0.560919 4.943774 1.409337 -9.005920 16.778006 4.238424 -3.107250 -0.061217 -15.893279 2.078787 8.370493 -38.278890 12.471749 2.412860 5.754859 -46.618581 14.014553 10.757559 2.139141 5.829142 17.805470 3.144847 0.894909 41.833385 -2.498521 6.572933 -18.557814 35.706179 -8.520808 -3.242380 -4.665864 12.243432 
0.602913 0.713934 0.963842 -89.550844 2.111698 74.132831 -2.911936 -5.894963 -10.611269 -11.718902 -7.783021 31.995411 15.390020 17.477199 -6.313703 0.000000 -0.000000 0.000000 -12.415274 4.583866 -31.053657 7.443933 2.024113 94.397190 -17.871959 -14.663562 20.848122 0.000000 -0.000000 0.000000 -1.736662 -0.872649 26.334504 5.121365 -1.202802 5.997691 1.795137 -1.845372 7.523143 -2.598364 -7.174577 14.059387 5.888218 0.621142 1.244430 -17.748564 1.061216 6.107703 -42.172812 6.586031 2.100831 11.493378 -48.420751 9.151285 12.553603 3.097782 2.552587 18.257543 1.770909 2.104779 45.216965 -5.438849 5.206291 -18.481489 35.413897 -5.329500 1.883395 -5.718452 9.925218 
0.598670 0.715008 0.967657 -87.740640 4.398351 72.808122 -1.671778 -4.907405 -9.131842 -10.550299 -9.681156 32.864846 11.943485 15.769318 -8.468303 0.000000 -0.000000 0.000000 -12.164946 4.189011 -40.789849 2.221274 -4.376523 67.377270 -14.180324 -11.815976 -5.091351 0.000000 -0.000000 0.000000 0.034917 -3.671327 30.934250 4.580562 -2.905803 6.473167 2.477259 -3.727395 7.319819 -3.270342 -2.946327 11.795713 5.640191 0.217378 1.710117 -18.279396 -0.006401 3.285404 -46.269670 -0.476556 3.238659 20.986873 -49.611207 -0.967534 10.508572 2.099523 2.513853 19.113332 -1.112340 2.325520 47.503120 -8.812093 4.219440 -17.519028 34.340571 -2.048185 3.591790 -5.303904 11.142712 
0.596295 0.715161 0.971594 -88.071452 6.202924 73.178762 0.137016 -2.543948 -9.398501 -9.962977 -11.028641 33.231712 10.044259 14.390312 -9.994374 0.000000 -0.000000 0.000000 -9.798952 4.560867 -48.562985 1.996770 -5.977946 37.589035 -10.147735 -12.636344 -20.410058 0.000000 -0.000000 0.000000 1.222732 -6.247164 34.444490 4.035848 -2.556734 4.437320 2.609517 -4.667348 8.316046 -3.844777 0.975510 10.041939 5.110762 -0.300431 1.442609 -18.265554 0.728842 2.329620 -49.405411 -9.502835 4.279640 28.448283 -53.070654 -6.263136 12.752779 2.016671 2.051528 19.507897 -4.879159 3.434225 49.950588 -10.874050 3.199116 -16.626502 33.190581 2.333915 3.563387 -5.307802 9.639187 
0.588717 0.716743 0.975203 -87.100936 7.268198 72.681089 1.190441 -0.771109 -8.609632 -10.232133 -12.270715 34.337244 10.507187 13.024711 -11.000495 0.000000 -0.000000 0.000000 -6.781531 4.537073 -55.612729 2.083344 0.413612 20.139636 -5.822329 -12.442497 -2.274412 0.000000 -0.000000 0.000000 0.645878 -8.526935 37.238366 3.854129 -2.463727 3.459098 3.043669 -5.410762 9.640498 -6.143137 1.713686 8.340905 6.299282 2.081961 0.655143 -17.646440 0.572005 3.256230 -51.623207 -16.941933 4.315282 36.852039 -58.940929 -10.613009 15.701291 0.920032 -0.415450 18.935031 -6.651098 5.405977 53.804659 -12.859704 3.278189 -17.508735 31.728566 3.140434 3.381238 -5.312613 5.979182 
0.576885 0.717931 0.978652 -83.155918 8.511707 70.560277 0.954609 -1.968372 -5.277947 -10.168627 -14.731505 35.104314 9.296918 12.721085 -12.725128 0.000000 -0.000000 0.000000 -11.193074 4.184019 -60.715645 -0.056104 -7.891505 18.551320 6.904185 -10.280161 -3.001037 0.000000 -0.000000 0.000000 0.579596 -11.042367 40.642933 4.007926 -3.475742 4.078316 3.289847 -6.052685 9.184198 -5.966488 3.112445 7.380890 6.402940 1.307728 0.585312 -16.368231 -1.682555 2.577449 -54.096592 -20.703195 7.093278 48.647879 -63.033327 -20.951364 15.055834 -1.229860 0.973025 18.629359 -7.176408 5.134114 57.672785 -17.065953 3.611919 -19.339189 30.499350 0.792410 3.652313 -5.986303 7.031367 
0.564635 0.719865 0.983017 -81.036227 9.678855 68.869034 1.083736 -3.239950 -1.939865 -10.211916 -17.029272 35.083450 9.504925 13.887356 -13.149086 0.000000 -0.000000 0.000000 -14.598524 4.658348 -68.377037 -1.760116 -12.521263 34.010814 5.493258 -13.110000 -3.902283 0.000000 -0.000000 0.000000 0.695619 -12.873958 42.750584 4.313556 -2.505147 3.543806 2.870261 -6.841925 9.392058 -5.408239 3.404523 7.383669 5.966419 0.701832 1.498755 -15.660359 -3.238406 2.434318 -56.165003 -23.662168 9.724538 52.854580 -66.430289 -21.831727 16.353841 -2.577471 1.785272 18.136196 -8.019228 5.475324 60.776831 -19.478113 3.765988 -19.671001 29.965867 1.648205 1.613276 -5.347422 5.658023 
0.550588 0.721265 0.989824 -80.468271 10.473186 67.832348 1.960949 -2.791691 1.265234 -9.973438 -18.631075 33.716165 9.625448 13.972076 -13.618155 0.000000 -0.000000 0.000000 -14.956744 5.916232 -75.249907 -1.467601 -9.509898 50.419497 5.059376 -11.297015 -5.043124 0.000000 -0.000000 0.000000 0.081850 -13.990368 42.532176 4.829046 -1.436039 5.166070 2.681532 -6.713091 8.608750 -4.989838 3.853860 8.357948 5.483563 0.392679 2.294550 -16.062615 -4.832331 2.343248 -58.548063 -24.095119 11.935055 53.593805 -68.086414 -21.089904 17.262414 -3.842451 2.677314 18.218075 -7.543683 6.025534 61.952430 -20.318454 3.248459 -19.565162 30.260852 2.394090 2.357749 -4.975100 5.309540 
0.540773 0.720402 0.998315 -78.733801 11.350844 68.609943 2.431735 -3.280263 2.715576 -9.223448 -20.240845 31.450002 9.568397 13.702220 -13.129777 0.000000 -0.000000 0.000000 -16.410830 5.501253 -77.881713 -3.531160 -12.121278 58.566688 4.338921 -12.268051 -6.092100 0.000000 -0.000000 0.000000 0.439093 -15.291203 42.070826 5.271311 -1.177832 4.261244 2.812094 -6.820206 8.421923 -4.653958 3.705350 9.003748 5.059363 0.433205 2.948297 -16.577888 -5.454777 3.115501 -61.957363 -24.130360 13.804825 51.819640 -68.717595 -18.197856 15.435285 -2.593741 3.941474 18.075367 -7.013962 6.354179 62.059850 -19.578333 3.371203 -19.389728 31.173543 3.144218 2.234936 -4.967009 5.675332 
0.534945 0.719749 1.005023 -78.371447 11.837317 70.422519 2.785616 -4.062423 2.493817 -8.165435 -20.357132 29.235758 9.599173 13.279788 -12.619013 0.000000 -0.000000 0.000000 -16.786402 5.607448 -77.137024 -4.378423 -14.759427 58.640511 3.688287 -12.972258 -7.905527 0.000000 -0.000000 0.000000 1.466506 -15.298253 40.443564 5.608232 -0.836740 3.782225 2.996002 -6.868084 7.611009 -4.068159 3.241533 9.403933 4.344467 0.705529 2.876714 -17.240435 -5.549274 4.500303 -64.534177 -23.226158 14.688305 47.713164 -69.023130 -12.622324 14.579925 -2.248053 4.211471 17.615438 -6.422430 7.102666 61.984232 -17.714706 3.393629 -19.819316 33.478165 3.801753 0.965418 -4.307404 4.156254 
